<svg preserveAspectRatio="none" width="100%" height="100%" overflow="visible" style="display: block;" viewBox="0 0 24 24" fill="none" xmlns="http://www.w3.org/2000/svg">
<g id="blob">
<path id="Polygon 30" d="M13.0592 4.29468C13.2668 4.16106 13.3706 4.09425 13.4548 4.05073C14.5187 3.50062 15.8243 4.00272 16.2456 5.12397C16.2789 5.21267 16.3112 5.33182 16.3758 5.57012C16.4056 5.68014 16.4205 5.73515 16.4371 5.78576C16.6389 6.39892 17.1243 6.87698 17.7404 7.06951C17.7912 7.0854 17.8465 7.09948 17.9569 7.12764L18.1069 7.16587C18.6259 7.29817 18.8854 7.36432 19.0749 7.45831C19.9364 7.88552 20.3719 8.86531 20.1118 9.79104C20.0546 9.99471 19.9298 10.2317 19.6803 10.7056L19.6082 10.8425C19.5551 10.9434 19.5285 10.9938 19.5063 11.0422C19.2363 11.6286 19.266 12.3092 19.586 12.8698C19.6124 12.9161 19.6433 12.964 19.705 13.0599C19.8386 13.2675 19.9054 13.3713 19.9489 13.4555C20.499 14.5194 19.9969 15.8251 18.8757 16.2463C18.787 16.2796 18.6678 16.3119 18.4295 16.3765C18.3195 16.4063 18.2645 16.4212 18.2139 16.4379C17.6007 16.6397 17.1226 17.125 16.9301 17.7411C16.9142 17.792 16.9001 17.8472 16.872 17.9577L16.8338 18.1076C16.7015 18.6266 16.6353 18.8861 16.5413 19.0757C16.1141 19.9371 15.1343 20.3727 14.2086 20.1126C14.0049 20.0554 13.7679 19.9306 13.294 19.681L13.1571 19.6089C13.0562 19.5558 13.0058 19.5293 12.9574 19.507C12.371 19.2371 11.6904 19.2668 11.1298 19.5867C11.0835 19.6131 11.0356 19.644 10.9397 19.7057C10.7321 19.8393 10.6283 19.9061 10.5441 19.9496C9.48019 20.4997 8.17457 19.9976 7.75335 18.8764C7.72002 18.7877 7.68773 18.6685 7.62315 18.4302C7.59333 18.3202 7.57842 18.2652 7.56176 18.2146C7.35997 17.6014 6.87464 17.1234 6.25852 16.9308C6.20766 16.915 6.15243 16.9009 6.04197 16.8727L5.89201 16.8345C5.37299 16.7022 5.11348 16.636 4.92395 16.542C4.06249 16.1148 3.62697 15.1351 3.88705 14.2093C3.94428 14.0056 4.06905 13.7687 4.3186 13.2947L4.3907 13.1578C4.44381 13.057 4.47036 13.0065 4.49264 12.9581C4.76255 12.3717 4.73285 11.6912 4.4129 11.1305C4.38649 11.0842 4.35564 11.0363 4.29395 10.9405C4.16033 10.7329 4.09352 10.6291 4.04999 10.5449C3.49989 9.48092 4.00198 8.1753 5.12323 7.75408C5.21194 7.72075 5.33109 7.68846 5.56938 7.62388C5.67941 7.59406 5.73442 7.57915 5.78503 7.56249C6.39819 7.3607 6.87625 6.87538 7.06878 6.25925C7.08467 6.20839 7.09875 6.15316 7.12691 6.0427L7.16513 5.89274C7.29744 5.37372 7.36359 5.11421 7.45758 4.92468C7.88479 4.06322 8.86458 3.6277 9.79031 3.88779C9.99398 3.94501 10.2309 4.06978 10.7049 4.31933L10.8418 4.39143C10.9427 4.44454 10.9931 4.47109 11.0415 4.49337C11.6279 4.76328 12.3085 4.73358 12.8691 4.41363C12.9154 4.38722 12.9633 4.35637 13.0592 4.29468Z" stroke="var(--stroke-0, #8A878A)" stroke-linecap="round" stroke-linejoin="round"/>
<circle id="Ellipse 2" cx="12" cy="12" r="2.5" stroke="var(--stroke-0, #8A878A)"/>
</g>
</svg>
