<svg preserveAspectRatio="none" width="100%" height="100%" overflow="visible" style="display: block;" viewBox="0 0 24 24" fill="none" xmlns="http://www.w3.org/2000/svg">
<g id="shopping-bag">
<path id="Rectangle 2118" d="M19.9999 6.99991H3.9999V17.7799C3.9999 18.9189 3.9999 19.4884 4.22508 19.9219C4.41483 20.2871 4.71267 20.585 5.07796 20.7747C5.51143 20.9999 6.08092 20.9999 7.2199 20.9999H16.7799C17.9189 20.9999 18.4884 20.9999 18.9219 20.7747C19.2871 20.585 19.585 20.2871 19.7747 19.9219C19.9999 19.4884 19.9999 18.9189 19.9999 17.7799V6.99991Z" stroke="var(--stroke-0, #8D8A8D)" stroke-linecap="round" stroke-linejoin="round"/>
<path id="Rectangle 2119" d="M16.4716 3H7.52822C7.2099 3 7.05075 3 6.90647 3.04459C6.78403 3.08243 6.67 3.14346 6.5706 3.22434C6.45347 3.31965 6.36518 3.45208 6.18862 3.71693L3.9999 7H19.9999L17.8112 3.71693C17.6346 3.45208 17.5463 3.31965 17.4292 3.22434C17.3298 3.14346 17.2158 3.08243 17.0933 3.04459C16.9491 3 16.7899 3 16.4716 3Z" stroke="var(--stroke-0, #8D8A8D)" stroke-linecap="round" stroke-linejoin="round"/>
<path id="Vector 480" d="M7.99995 9.99991C9.44429 13.6107 14.5556 13.6107 16 9.99991" stroke="var(--stroke-0, #8D8A8D)" stroke-linecap="round" stroke-linejoin="round"/>
</g>
</svg>
