<svg preserveAspectRatio="none" width="100%" height="100%" overflow="visible" style="display: block;" viewBox="0 0 28 28" fill="none" xmlns="http://www.w3.org/2000/svg">
<g id="present">
<path id="shape" d="M4.66666 11.6667H23.3333M4.66666 11.6667V22.1667C4.66666 23.4554 5.71133 24.5 6.99999 24.5H21C22.2887 24.5 23.3333 23.4554 23.3333 22.1667V11.6667M4.66666 11.6667C4.02233 11.6667 3.49999 11.1444 3.49999 10.5V9.33337C3.49999 8.68904 4.02233 8.16671 4.66666 8.16671H23.3333C23.9777 8.16671 24.5 8.68904 24.5 9.33337V10.5C24.5 11.1444 23.9777 11.6667 23.3333 11.6667M14 8.75004V24.5M11.3539 3.54196C11.9937 3.91134 12.8447 5.28815 13.4545 6.39593C13.8481 7.11085 13.3584 7.95897 12.5425 7.97561C11.2782 8.00139 9.66037 7.95279 9.02058 7.58341C7.90457 6.93908 7.52219 5.51203 8.16652 4.39602C8.81086 3.28 10.2379 2.89762 11.3539 3.54196ZM16.6039 3.50008C15.9641 3.86946 15.1131 5.24627 14.5033 6.35405C14.1097 7.06897 14.5994 7.91709 15.4153 7.93373C16.6796 7.95951 18.2975 7.91091 18.9372 7.54153C20.0533 6.8972 20.4356 5.47015 19.7913 4.35413C19.147 3.23812 17.7199 2.85574 16.6039 3.50008Z" stroke="var(--stroke-0, white)" stroke-linecap="round" stroke-linejoin="round"/>
</g>
</svg>
