<svg width="125" height="37" viewBox="0 0 125 37" fill="none" xmlns="http://www.w3.org/2000/svg">
<path d="M101.956 9.88031V9.32031H112.836V9.88031H112.276C111.316 9.88031 110.836 10.227 110.836 10.9203C110.836 11.1603 110.916 11.547 111.076 12.0803L115.036 22.8803L119.356 12.0803C119.543 11.467 119.636 11.0803 119.636 10.9203C119.636 10.227 119.103 9.88031 118.036 9.88031H117.436V9.32031H124.116V9.88031H123.716C123.21 9.88031 122.863 9.93364 122.676 10.0403C122.516 10.1203 122.33 10.2936 122.116 10.5603C121.903 10.8003 121.743 11.0003 121.636 11.1603C121.556 11.2936 121.423 11.6003 121.236 12.0803L113.996 30.2003C113.116 32.3603 112.276 33.8536 111.476 34.6803C110.383 35.9336 108.903 36.5603 107.036 36.5603C105.836 36.5603 104.85 36.2803 104.076 35.7203C103.303 35.1603 102.916 34.4536 102.916 33.6003C102.916 32.9336 103.17 32.3603 103.676 31.8803C104.183 31.4003 104.81 31.1603 105.556 31.1603C106.143 31.1603 106.65 31.3203 107.076 31.6403C107.53 31.987 107.796 32.427 107.876 32.9603L107.956 33.4803C108.01 33.827 108.303 34.0003 108.836 34.0003C109.93 34.0003 110.876 32.8136 111.676 30.4403L104.756 12.0803C104.223 10.6136 103.436 9.88031 102.396 9.88031H101.956Z" fill="#232323"/>
<path d="M90.5131 11.0798L90.5531 10.4398C92.9531 9.34647 94.6198 8.37314 95.5531 7.51981C96.4865 6.63981 97.5665 5.06647 98.7931 2.7998H99.3931L99.3531 9.31981H104.033V11.0798H99.3531V24.2398C99.3531 24.8531 99.3931 25.3065 99.4731 25.5998C99.7398 26.5331 100.433 26.9998 101.553 26.9998C102.14 26.9998 102.633 26.8531 103.033 26.5598C103.433 26.2665 103.833 25.7331 104.233 24.9598L104.793 25.2398C104.02 26.9465 103.113 28.0798 102.073 28.6398C101.62 28.8798 101.073 29.0798 100.433 29.2398C99.7931 29.3998 99.1665 29.4798 98.5531 29.4798C95.2465 29.4798 93.5931 27.9331 93.5931 24.8398V11.0798H90.5131Z" fill="#232323"/>
<path d="M89.9225 18.16L77.5225 18.12C77.5225 20.6 78.0425 22.5467 79.0825 23.96C80.1492 25.3467 81.6158 26.04 83.4825 26.04C84.4692 26.04 85.3892 25.8133 86.2425 25.36C87.0958 24.9067 87.7492 24.4 88.2025 23.84C88.6558 23.28 89.1225 22.4133 89.6025 21.24L90.2025 21.36C89.8825 22.48 89.6958 23.1067 89.6425 23.24C89.4825 23.7467 89.2692 24.28 89.0025 24.84C88.3358 26.28 87.2825 27.4267 85.8425 28.28C84.4025 29.1067 82.7625 29.52 80.9225 29.52C78.1225 29.52 75.8558 28.5867 74.1225 26.72C72.4158 24.8267 71.5625 22.3867 71.5625 19.4C71.5625 16.3067 72.4558 13.8 74.2425 11.88C76.0292 9.96 78.3758 9 81.2825 9C83.1758 9 84.8692 9.48 86.3625 10.44C87.6158 11.2133 88.5225 12.1733 89.0825 13.32C89.6425 14.44 89.9225 16.0533 89.9225 18.16ZM77.9225 13.92L77.5625 16.12H83.8425C83.8425 14.9467 83.7758 14.1067 83.6425 13.6C83.5092 13.0933 83.2425 12.5333 82.8425 11.92C82.3358 11.0933 81.6692 10.68 80.8425 10.68C80.1758 10.68 79.5625 10.9867 79.0025 11.6C78.4692 12.1867 78.1092 12.96 77.9225 13.92Z" fill="#232323"/>
<path d="M69.5319 18.16L57.1319 18.12C57.1319 20.6 57.6519 22.5467 58.6919 23.96C59.7585 25.3467 61.2252 26.04 63.0919 26.04C64.0785 26.04 64.9985 25.8133 65.8519 25.36C66.7052 24.9067 67.3585 24.4 67.8119 23.84C68.2652 23.28 68.7319 22.4133 69.2119 21.24L69.8119 21.36C69.4919 22.48 69.3052 23.1067 69.2519 23.24C69.0919 23.7467 68.8785 24.28 68.6119 24.84C67.9452 26.28 66.8919 27.4267 65.4519 28.28C64.0119 29.1067 62.3719 29.52 60.5319 29.52C57.7319 29.52 55.4652 28.5867 53.7319 26.72C52.0252 24.8267 51.1719 22.3867 51.1719 19.4C51.1719 16.3067 52.0652 13.8 53.8519 11.88C55.6385 9.96 57.9852 9 60.8919 9C62.7852 9 64.4785 9.48 65.9719 10.44C67.2252 11.2133 68.1319 12.1733 68.6919 13.32C69.2519 14.44 69.5319 16.0533 69.5319 18.16ZM57.5319 13.92L57.1719 16.12H63.4519C63.4519 14.9467 63.3852 14.1067 63.2519 13.6C63.1185 13.0933 62.8519 12.5333 62.4519 11.92C61.9452 11.0933 61.2785 10.68 60.4519 10.68C59.7852 10.68 59.1719 10.9867 58.6119 11.6C58.0785 12.1867 57.7185 12.96 57.5319 13.92Z" fill="#232323"/>
<path d="M19.7734 9.88031V9.32031H30.2134V9.88031H29.7734C29.3468 9.88031 29.0534 9.93364 28.8934 10.0403C28.7334 10.147 28.6534 10.3736 28.6534 10.7203C28.6534 11.0936 28.7601 11.547 28.9734 12.0803L32.7334 22.0403L35.3334 15.2003L34.0934 12.0803C33.7734 11.2536 33.4401 10.6803 33.0934 10.3603C32.7468 10.0403 32.2801 9.88031 31.6934 9.88031H31.2934V9.32031H42.0934V9.88031H41.5734C40.5601 9.88031 40.0534 10.2136 40.0534 10.8803C40.0534 11.0136 40.0934 11.2136 40.1734 11.4803C40.2534 11.7203 40.3201 11.9203 40.3734 12.0803L44.0934 22.0803L47.7734 12.0803C47.9334 11.6003 48.0134 11.2136 48.0134 10.9203C48.0134 10.547 47.8934 10.2803 47.6534 10.1203C47.4401 9.96031 47.0668 9.88031 46.5334 9.88031H45.9334V9.32031H52.5334V9.88031H52.0934C51.4801 9.88031 51.0001 10.0403 50.6534 10.3603C50.3068 10.6536 49.9734 11.227 49.6534 12.0803L43.4134 29.1603H40.6534L36.2934 17.7603L32.0134 29.1603H29.2134L22.7334 12.0803C22.4134 11.227 22.0801 10.6536 21.7334 10.3603C21.3868 10.0403 20.8801 9.88031 20.2134 9.88031H19.7734Z" fill="#232323"/>
<path d="M18.2 0H18.96L19.08 9.52H18.36L17.88 7.16C17.6667 6.46667 17.3067 5.76 16.8 5.04C16.2933 4.32 15.7333 3.74667 15.12 3.32C13.84 2.30667 12.36 1.8 10.68 1.8C9.24 1.8 8.06667 2.18667 7.16 2.96C6.25333 3.73333 5.8 4.74667 5.8 6C5.8 7.22667 6.28 8.25333 7.24 9.08C7.66667 9.45333 8.17333 9.81333 8.76 10.16C9.48 10.5333 10.0267 10.8 10.4 10.96C10.7733 11.12 11.4533 11.4 12.44 11.8L16.12 13.52C19.16 15.1467 20.68 17.4667 20.68 20.48C20.68 23.0933 19.7333 25.2533 17.84 26.96C15.9467 28.6667 13.5467 29.52 10.64 29.52C8.72 29.52 6.57333 29.12 4.2 28.32C3.82667 28.2133 3.46667 28.1333 3.12 28.08C2.77333 28 2.49333 27.96 2.28 27.96C1.48 27.96 1.08 28.4 1.08 29.28H0.36L0.08 19.08L0.84 19.04C0.973333 20.4533 1.14667 21.5333 1.36 22.28C1.6 23.0267 1.97333 23.7333 2.48 24.4C3.2 25.3333 4.21333 26.0933 5.52 26.68C6.82667 27.2667 8.16 27.56 9.52 27.56C10.9867 27.56 12.2 27.12 13.16 26.24C14.12 25.36 14.6 24.2267 14.6 22.84C14.6 21.6133 14.12 20.56 13.16 19.68C12.7333 19.36 12.3467 19.12 12 18.96C11.68 18.7733 11 18.44 9.96 17.96L8.4 17.28L6.8 16.56C5.92 16.1867 5.13333 15.8 4.44 15.4C3.74667 14.9733 3.13333 14.5467 2.6 14.12C0.866667 12.6 0 10.64 0 8.24C0 5.78667 0.866667 3.81333 2.6 2.32C4.36 0.800001 6.69333 0.04 9.6 0.04C11.0667 0.04 12.7333 0.32 14.6 0.880001C15.32 1.09333 15.8 1.24 16.04 1.32C16.28 1.37333 16.5067 1.4 16.72 1.4C17.7067 1.4 18.2 0.933334 18.2 0Z" fill="#232323"/>
</svg>
