<svg width="20" height="20" viewBox="0 0 20 20" fill="none" xmlns="http://www.w3.org/2000/svg">
<mask id="mask0_62_460" style="mask-type:alpha" maskUnits="userSpaceOnUse" x="0" y="1" width="20" height="18">
<path d="M17.46 1.76093C17.8667 1.35443 18.5259 1.35442 18.9326 1.76093C19.3394 2.16772 19.3394 2.82777 18.9326 3.23457L16.6582 5.508C18.1186 6.66413 19.2875 8.19903 20 10.0002C18.9091 12.7818 16.7091 14.9728 13.9365 16.0637C11.311 17.0957 8.52651 17.0237 6.09277 16.0734L3.93359 18.2346C3.52683 18.6413 2.86677 18.6413 2.45996 18.2346C2.05316 17.8278 2.05317 17.1677 2.45996 16.7609L17.46 1.76093ZM12.6777 9.48945C12.7096 9.65665 12.7275 9.82756 12.7275 10.0002C12.7275 10.7234 12.4401 11.4175 11.9287 11.9289C11.4173 12.4403 10.7233 12.7277 10 12.7277C9.8273 12.7277 9.65652 12.7098 9.48926 12.6779L8.05762 14.1086C8.65932 14.3933 9.32162 14.5461 10 14.5461C11.2055 14.5461 12.3614 14.0664 13.2139 13.2141C14.0662 12.3617 14.5458 11.2056 14.5459 10.0002C14.5459 9.32172 14.3942 8.65863 14.1094 8.05683L12.6777 9.48945ZM10 3.18183C11.1584 3.18183 12.2849 3.3715 13.3467 3.72187L11.3926 5.675C10.9465 5.53137 10.4773 5.45527 10 5.45527C8.7945 5.45527 7.63856 5.93393 6.78613 6.78632C5.9338 7.63872 5.45414 8.79477 5.4541 10.0002C5.45413 10.4776 5.53011 10.9476 5.67383 11.3937L2.91797 14.1496C1.66709 13.0554 0.650509 11.6549 0 10.0002C1.61821 5.90935 5.58186 3.18183 10 3.18183ZM7.2832 9.78437C7.33438 9.14021 7.61108 8.53175 8.07129 8.07148C8.53159 7.61121 9.13994 7.33455 9.78418 7.28339L7.2832 9.78437Z" fill="#242225"/>
</mask>
<g mask="url(#mask0_62_460)">
<rect width="20" height="20" fill="#333333"/>
</g>
</svg>
