<svg width="20" height="20" viewBox="0 0 20 20" fill="none" xmlns="http://www.w3.org/2000/svg">
<mask id="mask0_63_767" style="mask-type:alpha" maskUnits="userSpaceOnUse" x="1" y="0" width="18" height="20">
<path d="M18.8059 8.28069C18.9205 8.89435 18.9828 9.53594 18.9828 10.2055C18.9828 15.4425 15.4778 19.1663 10.184 19.1663C8.98011 19.1667 7.78795 18.9299 6.67563 18.4693C5.56332 18.0088 4.55265 17.3336 3.70137 16.4823C2.85009 15.631 2.1749 14.6204 1.71436 13.508C1.25382 12.3957 1.01697 11.2036 1.01733 9.99968C1.01697 8.79579 1.25382 7.60363 1.71436 6.49131C2.1749 5.37899 2.85009 4.36832 3.70137 3.51704C4.55265 2.66577 5.56332 1.99057 6.67563 1.53003C7.78795 1.06949 8.98011 0.832641 10.184 0.833008C12.6591 0.833008 14.7273 1.74372 16.314 3.22245L13.73 5.80651V5.79999C12.7681 4.8837 11.5473 4.41345 10.184 4.41345C7.15948 4.41345 4.70113 6.96864 4.70113 9.99409C4.70113 13.0186 7.15948 15.5794 10.184 15.5794C12.9282 15.5794 14.7962 14.0103 15.1799 11.8555H10.184V8.28069H18.8069H18.8059Z" fill="#242225"/>
</mask>
<g mask="url(#mask0_63_767)">
<rect x="0.00170898" width="20" height="20" fill="#242225"/>
</g>
</svg>
