<svg preserveAspectRatio="none" width="100%" height="100%" overflow="visible" style="display: block;" viewBox="0 0 105.709 31.138" fill="none" xmlns="http://www.w3.org/2000/svg">
<g id="Sweety">
<path id="Vector" d="M86.8356 8.41475V7.9378H96.1021V8.41475H95.6251C94.8075 8.41475 94.3987 8.71 94.3987 9.30051C94.3987 9.50492 94.4668 9.83424 94.6031 10.2885L97.9758 19.4868L101.655 10.2885C101.814 9.7661 101.894 9.43678 101.894 9.30051C101.894 8.71 101.439 8.41475 100.531 8.41475H100.02V7.9378H105.709V8.41475H105.369C104.937 8.41475 104.642 8.46017 104.483 8.55102C104.346 8.61915 104.187 8.76678 104.006 8.9939C103.824 9.19831 103.688 9.36865 103.597 9.50492C103.529 9.61848 103.415 9.87966 103.256 10.2885L97.09 25.7212C96.3405 27.5608 95.6251 28.8327 94.9438 29.5368C94.0126 30.6042 92.7521 31.138 91.1622 31.138C90.1402 31.138 89.2999 30.8995 88.6412 30.4225C87.9826 29.9456 87.6533 29.3437 87.6533 28.617C87.6533 28.0492 87.869 27.5609 88.3005 27.152C88.7321 26.7432 89.2658 26.5388 89.9017 26.5388C90.4014 26.5388 90.8329 26.6751 91.1963 26.9476C91.5824 27.2429 91.8095 27.6176 91.8777 28.0719L91.9458 28.5147C91.9912 28.81 92.2411 28.9576 92.6953 28.9576C93.6265 28.9576 94.4327 27.947 95.1141 25.9256L89.2204 10.2885C88.7661 9.03932 88.0961 8.41475 87.2104 8.41475H86.8356Z" fill="var(--fill-0, white)"/>
<path id="Vector_2" d="M77.0896 9.43678L77.1236 8.89169C79.1677 7.96051 80.5872 7.13152 81.3821 6.40474C82.177 5.65525 83.0969 4.31525 84.1416 2.38474H84.6526L84.6186 7.93779H88.6045V9.43678H84.6186V20.6451C84.6186 21.1675 84.6526 21.5536 84.7208 21.8034C84.9479 22.5983 85.5384 22.9958 86.4923 22.9958C86.9919 22.9958 87.4121 22.8708 87.7528 22.621C88.0935 22.3712 88.4342 21.9169 88.7748 21.2583L89.2518 21.4968C88.5931 22.9503 87.8209 23.9156 86.9352 24.3925C86.5491 24.597 86.0835 24.7673 85.5384 24.9036C84.9933 25.0398 84.4596 25.108 83.9372 25.108C81.1209 25.108 79.7128 23.7907 79.7128 21.1561V9.43678H77.0896Z" fill="var(--fill-0, white)"/>
<path id="Vector_3" d="M76.5865 15.4668L66.0255 15.4327C66.0255 17.5449 66.4684 19.2029 67.3542 20.4066C68.2626 21.5876 69.5118 22.1781 71.1016 22.1781C71.942 22.1781 72.7255 21.9851 73.4523 21.599C74.1791 21.2129 74.7355 20.7814 75.1216 20.3044C75.5077 19.8275 75.9052 19.0893 76.314 18.09L76.825 18.1922C76.5525 19.1461 76.3935 19.6798 76.3481 19.7934C76.2118 20.2249 76.0301 20.6792 75.803 21.1561C75.2352 22.3825 74.3381 23.3592 73.1116 24.0859C71.8852 24.79 70.4884 25.142 68.9213 25.142C66.5365 25.142 64.606 24.3471 63.1298 22.7573C61.6762 21.1447 60.9494 19.0666 60.9494 16.5229C60.9494 13.8883 61.7103 11.7534 63.232 10.1181C64.7537 8.48288 66.7523 7.66525 69.2279 7.66525C70.8404 7.66525 72.2826 8.07407 73.5545 8.89169C74.622 9.55034 75.3942 10.368 75.8711 11.3446C76.3481 12.2985 76.5865 13.6725 76.5865 15.4668ZM66.3662 11.8556L66.0596 13.7293H71.4082C71.4082 12.73 71.3515 12.0146 71.2379 11.583C71.1243 11.1515 70.8972 10.6746 70.5565 10.1522C70.125 9.44813 69.5572 9.0961 68.8532 9.0961C68.2854 9.0961 67.763 9.35729 67.286 9.87966C66.8318 10.3793 66.5252 11.038 66.3662 11.8556Z" fill="var(--fill-0, white)"/>
<path id="Vector_4" d="M59.2199 15.4668L48.6589 15.4327C48.6589 17.5449 49.1018 19.2029 49.9876 20.4066C50.896 21.5876 52.1452 22.1781 53.735 22.1781C54.5754 22.1781 55.3589 21.9851 56.0857 21.599C56.8125 21.2129 57.3689 20.7814 57.755 20.3044C58.1411 19.8275 58.5386 19.0893 58.9474 18.09L59.4584 18.1922C59.1859 19.1461 59.0269 19.6798 58.9815 19.7934C58.8452 20.2249 58.6635 20.6792 58.4364 21.1561C57.8686 22.3825 56.9715 23.3592 55.745 24.0859C54.5186 24.79 53.1218 25.142 51.5547 25.142C49.1699 25.142 47.2394 24.3471 45.7632 22.7573C44.3096 21.1447 43.5828 19.0666 43.5828 16.5229C43.5828 13.8883 44.3437 11.7534 45.8654 10.1181C47.3871 8.48288 49.3857 7.66525 51.8613 7.66525C53.4738 7.66525 54.916 8.07407 56.1879 8.89169C57.2554 9.55034 58.0276 10.368 58.5045 11.3446C58.9815 12.2985 59.2199 13.6725 59.2199 15.4668ZM48.9996 11.8556L48.693 13.7293H54.0416C54.0416 12.73 53.9849 12.0146 53.8713 11.583C53.7577 11.1515 53.5306 10.6746 53.1899 10.1522C52.7584 9.44813 52.1906 9.0961 51.4866 9.0961C50.9188 9.0961 50.3964 9.35729 49.9194 9.87966C49.4652 10.3793 49.1586 11.038 48.9996 11.8556Z" fill="var(--fill-0, white)"/>
<path id="Vector_5" d="M16.8409 8.41475V7.9378H25.7326V8.41475H25.3579C24.9945 8.41475 24.7447 8.46017 24.6084 8.55102C24.4721 8.64186 24.404 8.83492 24.404 9.13017C24.404 9.44814 24.4948 9.83424 24.6765 10.2885L27.8789 18.7714L30.0933 12.9458L29.0372 10.2885C28.7647 9.58441 28.4808 9.0961 28.1855 8.82356C27.8903 8.55102 27.4928 8.41475 26.9931 8.41475H26.6525V7.9378H35.8508V8.41475H35.4079C34.5448 8.41475 34.1133 8.69864 34.1133 9.26644C34.1133 9.38 34.1474 9.55034 34.2155 9.77746C34.2837 9.98187 34.3404 10.1522 34.3859 10.2885L37.5542 18.8054L40.6884 10.2885C40.8247 9.87966 40.8928 9.55034 40.8928 9.30051C40.8928 8.98254 40.7906 8.75542 40.5862 8.61915C40.4045 8.48288 40.0865 8.41475 39.6323 8.41475H39.1213V7.9378H44.7425V8.41475H44.3677C43.8453 8.41475 43.4365 8.55102 43.1413 8.82356C42.846 9.07339 42.5621 9.5617 42.2896 10.2885L36.975 24.8354H34.6243L30.9109 15.1261L27.2657 24.8354H24.8809L19.362 10.2885C19.0894 9.5617 18.8055 9.07339 18.5103 8.82356C18.215 8.55102 17.7835 8.41475 17.2157 8.41475H16.8409Z" fill="var(--fill-0, white)"/>
<path id="Vector_6" d="M15.5008 0H16.1481L16.2503 8.10814H15.6371L15.2283 6.09814C15.0466 5.50763 14.74 4.90576 14.3085 4.29254C13.877 3.67932 13.4 3.19102 12.8776 2.82763C11.7875 1.96458 10.527 1.53305 9.0961 1.53305C7.86966 1.53305 6.87034 1.86237 6.09814 2.52102C5.32593 3.17966 4.93983 4.04271 4.93983 5.11017C4.93983 6.15492 5.34865 7.02932 6.16627 7.73339C6.52966 8.05136 6.96119 8.35797 7.46085 8.65322C8.07407 8.97119 8.53966 9.19831 8.85763 9.33458C9.17559 9.47085 9.75475 9.70932 10.5951 10.05L13.7293 11.5149C16.3185 12.9003 17.6131 14.8763 17.6131 17.4427C17.6131 19.6685 16.8068 21.5081 15.1942 22.9617C13.5817 24.4153 11.5376 25.142 9.06204 25.142C7.42678 25.142 5.59847 24.8014 3.57712 24.12C3.25915 24.0292 2.95254 23.961 2.65729 23.9156C2.36203 23.8475 2.12356 23.8134 1.94186 23.8134C1.26051 23.8134 0.919831 24.1881 0.919831 24.9376H0.30661L0.0681356 16.2503L0.715424 16.2163C0.828983 17.42 0.97661 18.3398 1.15831 18.9758C1.36271 19.6117 1.68068 20.2136 2.1122 20.7814C2.72542 21.5763 3.58848 22.2236 4.70136 22.7232C5.81424 23.2229 6.94983 23.4727 8.10814 23.4727C9.35729 23.4727 10.3907 23.098 11.2083 22.3485C12.0259 21.599 12.4347 20.6337 12.4347 19.4527C12.4347 18.408 12.0259 17.5109 11.2083 16.7614C10.8449 16.4888 10.5156 16.2844 10.2203 16.1481C9.9478 15.9892 9.36865 15.7053 8.48288 15.2964L7.15424 14.7173L5.79153 14.1041C5.04203 13.7861 4.37203 13.4568 3.78153 13.1161C3.19102 12.7527 2.66864 12.3893 2.21441 12.0259C0.738136 10.7314 0 9.06203 0 7.01797C0 4.92848 0.738136 3.2478 2.21441 1.97593C3.71339 0.681356 5.70068 0.0340676 8.17627 0.0340676C9.42543 0.0340676 10.8449 0.272542 12.4347 0.749492C13.048 0.931186 13.4568 1.0561 13.6612 1.12424C13.8656 1.16966 14.0586 1.19237 14.2403 1.19237C15.0807 1.19237 15.5008 0.794916 15.5008 0Z" fill="var(--fill-0, white)"/>
</g>
</svg>
